<?xml version="1.0" encoding="UTF-8" standalone="no"?><!DOCTYPE svg PUBLIC "-//W3C//DTD SVG 1.1//EN" "http://www.w3.org/Graphics/SVG/1.1/DTD/svg11.dtd"><svg width="100%" height="100%" viewBox="0 0 134 134" version="1.1" xmlns="http://www.w3.org/2000/svg" xmlns:xlink="http://www.w3.org/1999/xlink" xml:space="preserve" xmlns:serif="http://www.serif.com/" style="fill-rule:evenodd;clip-rule:evenodd;stroke-linejoin:round;stroke-miterlimit:2;"><path d="M66.667,11.111c30.633,0 55.555,24.922 55.555,55.556c0,30.633 -24.922,55.555 -55.555,55.555c-30.634,0 -55.556,-24.922 -55.556,-55.555c0,-30.634 24.922,-55.556 55.556,-55.556Zm-0,-11.111c-36.817,0 -66.667,29.85 -66.667,66.667c0,36.816 29.85,66.666 66.667,66.666c36.816,0 66.666,-29.85 66.666,-66.666c0,-36.817 -29.85,-66.667 -66.666,-66.667Zm-0,33.333c-18.406,0 -33.334,14.923 -33.334,33.334c0,14.727 9.55,27.222 22.8,31.627c1.667,0.312 2.2,-0.722 2.2,-1.605l0,-6.206c-9.272,2.017 -11.205,-3.927 -11.205,-3.927c-1.511,-3.85 -3.7,-4.878 -3.7,-4.878c-3.022,-2.072 0.228,-2.028 0.228,-2.028c3.35,0.233 5.111,3.439 5.111,3.439c2.972,5.094 7.794,3.622 9.7,2.772c0.3,-2.155 1.161,-3.622 2.116,-4.455c-7.405,-0.845 -15.183,-3.706 -15.183,-16.473c-0,-3.639 1.3,-6.611 3.433,-8.944c-0.344,-0.85 -1.489,-4.245 0.323,-8.833c-0,-0 2.8,-0.895 9.166,3.416c2.661,-0.739 5.511,-1.105 8.345,-1.122c2.833,0.011 5.683,0.383 8.35,1.122c6.366,-4.311 9.155,-3.416 9.155,-3.416c1.817,4.588 0.672,7.983 0.334,8.822c2.138,2.333 3.427,5.305 3.427,8.944c0,12.806 -7.8,15.622 -15.222,16.445c1.2,1.033 2.289,3.061 2.289,6.172l-0,9.144c-0,0.889 0.533,1.928 2.222,1.6c13.239,-4.405 22.778,-16.894 22.778,-31.616c-0,-18.411 -14.928,-33.334 -33.333,-33.334Z" style="fill:#fff;fill-rule:nonzero;"/></svg>